<svg width="30" height="151" viewBox="0 0 30 151" fill="none" xmlns="http://www.w3.org/2000/svg">
<path d="M14.2929 149.707C14.6834 150.098 15.3166 150.098 15.7071 149.707L22.0711 143.343C22.4616 142.953 22.4616 142.319 22.0711 141.929C21.6805 141.538 21.0474 141.538 20.6568 141.929L15 147.586L9.34314 141.929C8.95262 141.538 8.31945 141.538 7.92893 141.929C7.5384 142.319 7.5384 142.953 7.92893 143.343L14.2929 149.707ZM14 -4.37114e-08L14 3.10417L16 3.10417L16 4.37114e-08L14 -4.37114e-08ZM14 9.3125L14 15.5208L16 15.5208L16 9.3125L14 9.3125ZM14 21.7292L14 27.9375L16 27.9375L16 21.7292L14 21.7292ZM14 34.1458L14 40.3542L16 40.3542L16 34.1458L14 34.1458ZM14 46.5625L14 52.7708L16 52.7708L16 46.5625L14 46.5625ZM14 58.9792L14 65.1875L16 65.1875L16 58.9792L14 58.9792ZM14 71.3958L14 77.6042L16 77.6042L16 71.3958L14 71.3958ZM14 83.8125L14 90.0208L16 90.0208L16 83.8125L14 83.8125ZM14 96.2292L14 102.438L16 102.438L16 96.2292L14 96.2292ZM14 108.646L14 114.854L16 114.854L16 108.646L14 108.646ZM14 121.063L14 127.271L16 127.271L16 121.063L14 121.063ZM14 133.479L14 139.688L16 139.688L16 133.479L14 133.479ZM14 145.896L14 149L16 149L16 145.896L14 145.896ZM13.5858 150.414C14.3668 151.195 15.6332 151.195 16.4142 150.414L29.1421 137.686C29.9232 136.905 29.9232 135.639 29.1421 134.858C28.3611 134.077 27.0948 134.077 26.3137 134.858L15 146.172L3.68629 134.858C2.90524 134.077 1.63891 134.077 0.857858 134.858C0.0768097 135.639 0.0768096 136.905 0.857858 137.686L13.5858 150.414ZM13 -8.74228e-08L13 3.10417L17 3.10417L17 8.74228e-08L13 -8.74228e-08ZM13 9.3125L13 15.5208L17 15.5208L17 9.3125L13 9.3125ZM13 21.7292L13 27.9375L17 27.9375L17 21.7292L13 21.7292ZM13 34.1458L13 40.3542L17 40.3542L17 34.1458L13 34.1458ZM13 46.5625L13 52.7708L17 52.7708L17 46.5625L13 46.5625ZM13 58.9792L13 65.1875L17 65.1875L17 58.9792L13 58.9792ZM13 71.3958L13 77.6042L17 77.6042L17 71.3958L13 71.3958ZM13 83.8125L13 90.0208L17 90.0208L17 83.8125L13 83.8125ZM13 96.2292L13 102.438L17 102.438L17 96.2292L13 96.2292ZM13 108.646L13 114.854L17 114.854L17 108.646L13 108.646ZM13 121.063L13 127.271L17 127.271L17 121.063L13 121.063ZM13 133.479L13 139.688L17 139.688L17 133.479L13 133.479ZM13 145.896L13 149L17 149L17 145.896L13 145.896Z" fill="white"/>
</svg>
